<?xml version="1.0" encoding="UTF-8"?>
<svg width="300px" height="300px" viewBox="0 0 300 300" version="1.1" xmlns="http://www.w3.org/2000/svg" xmlns:xlink="http://www.w3.org/1999/xlink">
    <!-- Generator: Sketch Xcode 52 (60725) - http://www.bohemiancoding.com/sketch -->
    <title>Artboard</title>
    <desc>Created with Sketch Xcode.</desc>
    <defs></defs>
    <g id="Artboard" stroke="none" stroke-width="1" fill="none" fill-rule="evenodd">
        <polygon id="Rectangle" stroke="#000000" stroke-width="0.1" transform="translate(61.750000, 24.500000) rotate(-270.000000) translate(-61.750000, -24.500000) " points="45.25 -19.75 50.2526245 -19.75 50.2526245 -22.75 70.2485046 -22.75 70.2485046 -19.75 75.25 -19.75 75.25 -7.75 78.25 -7.75387573 78.25 22.75 75.25 22.75 75.25 31.7523499 78.25 31.7523499 78.25 62.2494507 75.25 62.2494507 75.25 68.75 70.25 68.75 70.2615356 71.75 50.2521362 71.75 50.25 68.75 45.25 68.75"></polygon>
        <polygon id="Rectangle" stroke="#000000" stroke-width="0.1" transform="translate(61.750000, 67.500000) rotate(-270.000000) translate(-61.750000, -67.500000) " points="45.25 23.25 50.2526245 23.25 50.2526245 20.25 70.2485046 20.25 70.2485046 23.25 75.25 23.25 75.25 35.25 78.25 35.2461243 78.25 65.75 75.25 65.75 75.25 74.7523499 78.25 74.7523499 78.25 105.249451 75.25 105.249451 75.25 111.75 70.25 111.75 70.2615356 114.75 50.2521362 114.75 50.25 111.75 45.25 111.75"></polygon>
        <polygon id="Rectangle" stroke="#000000" stroke-width="0.1" transform="translate(61.750000, 111.500000) rotate(-270.000000) translate(-61.750000, -111.500000) " points="45.25 67.25 50.2526245 67.25 50.2526245 64.25 70.2485046 64.25 70.2485046 67.25 75.25 67.25 75.25 79.25 78.25 79.2461243 78.25 109.75 75.25 109.75 75.25 118.75235 78.25 118.75235 78.25 149.249451 75.25 149.249451 75.25 155.75 70.25 155.75 70.2615356 158.75 50.2521362 158.75 50.25 155.75 45.25 155.75"></polygon>
        <polygon id="Rectangle" stroke="#000000" stroke-width="0.1" points="72 140 92 140 92 287 72 287"></polygon>
        <g id="Group" transform="translate(39.000000, 214.500000) rotate(-360.000000) translate(-39.000000, -214.500000) translate(22.000000, 141.000000)" stroke="#000000" stroke-width="0.1">
            <polygon id="Rectangle" points="3.5 3 8.5 3 8.5 1.70530257e-13 28.5 1.70530257e-13 28.5 3 33.5 3 33.5 144.000244 29.5 144.000244 29.5035095 147 9.50106812 147 9.5 144.000244 3.5 144 3.5 141.761902 3.5 139.503662 11.5 139.503662 11.5 117.375 3.5 117.375 3.5 115.75 0.5 115.75 0.5 107.75 3.5 107.75 3.5 104.29 11.5 104.29 11.5 81.625 3.5 81.625 3.5 79.25 0.5 79.25 0.5 71.25 3.5 71.25 3.5 67.79 11.5 67.79 11.5 45.125 3.5 45.125 3.5 42.75 0.5 42.75 0.5 34.75 3.5 34.75 3.5 30.79 11.5 30.79 11.5 8.5 3.5 8.5"></polygon>
            <rect id="Rectangle-2" transform="translate(18.500000, 38.050000) rotate(-270.000000) translate(-18.500000, -38.050000) " x="17" y="28.05" width="3" height="20"></rect>
            <rect id="Rectangle-2" transform="translate(18.500000, 74.550000) rotate(-270.000000) translate(-18.500000, -74.550000) " x="17" y="64.55" width="3" height="20"></rect>
            <rect id="Rectangle-2" transform="translate(18.500000, 111.050000) rotate(-270.000000) translate(-18.500000, -111.050000) " x="17" y="101.05" width="3" height="20"></rect>
        </g>
    </g>
</svg>