<?xml version="1.0" encoding="UTF-8"?>
<svg width="300px" height="300px" viewBox="0 0 300 300" version="1.1" xmlns="http://www.w3.org/2000/svg" xmlns:xlink="http://www.w3.org/1999/xlink">
    <!-- Generator: Sketch Xcode 52 (60725) - http://www.bohemiancoding.com/sketch -->
    <title>Artboard</title>
    <desc>Created with Sketch Xcode.</desc>
    <defs></defs>
    <g id="Artboard" stroke="none" stroke-width="1" fill="none" fill-rule="evenodd">
        <path d="M40.5546875,217.386719 C40.5546875,217.589845 40.6289055,217.749999 40.7773438,217.867188 C40.925782,217.984376 41.1015615,218.042969 41.3046875,218.042969 C41.5520846,218.042969 41.7916655,217.985678 42.0234375,217.871094 C42.4140645,217.680989 42.609375,217.369794 42.609375,216.9375 L42.609375,216.371094 C42.5234371,216.425782 42.4127611,216.471354 42.2773438,216.507812 C42.1419264,216.544271 42.0091152,216.570312 41.8789062,216.585938 L41.453125,216.640625 C41.1979154,216.674479 41.0065111,216.727864 40.8789062,216.800781 C40.6627593,216.923178 40.5546875,217.118488 40.5546875,217.386719 Z M42.2578125,215.964844 C42.4192716,215.94401 42.5273435,215.876303 42.5820312,215.761719 C42.6132814,215.699218 42.6289062,215.609376 42.6289062,215.492188 C42.6289062,215.252603 42.5436206,215.078777 42.3730469,214.970703 C42.2024731,214.86263 41.9583349,214.808594 41.640625,214.808594 C41.2734357,214.808594 41.0130216,214.907551 40.859375,215.105469 C40.7734371,215.214844 40.717448,215.377603 40.6914062,215.59375 L40.0351562,215.59375 C40.0481771,215.078122 40.2154932,214.719402 40.5371094,214.517578 C40.8587256,214.315754 41.2317687,214.214844 41.65625,214.214844 C42.14844,214.214844 42.5481755,214.308593 42.8554688,214.496094 C43.1601578,214.683595 43.3125,214.975258 43.3125,215.371094 L43.3125,217.78125 C43.3125,217.854167 43.3274738,217.91276 43.3574219,217.957031 C43.3873699,218.001302 43.4505204,218.023438 43.546875,218.023438 C43.5781252,218.023438 43.6132811,218.021484 43.6523438,218.017578 C43.6914064,218.013672 43.7330727,218.007813 43.7773438,218 L43.7773438,218.519531 C43.6679682,218.550781 43.5846357,218.570312 43.5273438,218.578125 C43.4700518,218.585938 43.3919276,218.589844 43.2929688,218.589844 C43.05078,218.589844 42.8750005,218.503907 42.765625,218.332031 C42.708333,218.240885 42.6679689,218.11198 42.6445312,217.945312 C42.5013014,218.132813 42.2955743,218.295572 42.0273438,218.433594 C41.7591132,218.571615 41.4635433,218.640625 41.140625,218.640625 C40.7526022,218.640625 40.4355481,218.522788 40.1894531,218.287109 C39.9433581,218.051431 39.8203125,217.756512 39.8203125,217.402344 C39.8203125,217.014321 39.941405,216.713543 40.1835938,216.5 C40.4257825,216.286457 40.7434876,216.154948 41.1367188,216.105469 L42.2578125,215.964844 Z M44.4648438,214.316406 L45.1328125,214.316406 L45.1328125,214.910156 C45.3307302,214.665363 45.5403635,214.489584 45.7617188,214.382812 C45.983074,214.276041 46.2291653,214.222656 46.5,214.222656 C47.093753,214.222656 47.4947906,214.429685 47.703125,214.84375 C47.8177089,215.070314 47.875,215.394529 47.875,215.816406 L47.875,218.5 L47.1601562,218.5 L47.1601562,215.863281 C47.1601562,215.608072 47.1223962,215.402345 47.046875,215.246094 C46.9218744,214.985676 46.6953141,214.855469 46.3671875,214.855469 C46.20052,214.855469 46.0638026,214.872396 45.9570312,214.90625 C45.764322,214.963542 45.5950528,215.078124 45.4492188,215.25 C45.3320307,215.388022 45.2558596,215.530598 45.2207031,215.677734 C45.1855467,215.824871 45.1679688,216.035155 45.1679688,216.308594 L45.1679688,218.5 L44.4648438,218.5 L44.4648438,214.316406 Z M49.359375,216.457031 C49.359375,216.90495 49.4544261,217.279946 49.6445312,217.582031 C49.8346364,217.884116 50.1393208,218.035156 50.5585938,218.035156 C50.8841162,218.035156 51.1516917,217.895184 51.3613281,217.615234 C51.5709646,217.335285 51.6757812,216.933596 51.6757812,216.410156 C51.6757812,215.881508 51.5677094,215.490236 51.3515625,215.236328 C51.1354156,214.982421 50.8684912,214.855469 50.5507812,214.855469 C50.1966128,214.855469 49.9095063,214.990884 49.6894531,215.261719 C49.4693999,215.532553 49.359375,215.930987 49.359375,216.457031 Z M50.4179688,214.242188 C50.7382829,214.242188 51.0065093,214.309895 51.2226562,214.445312 C51.3476569,214.523438 51.4895825,214.660155 51.6484375,214.855469 L51.6484375,212.742188 L52.3242188,212.742188 L52.3242188,218.5 L51.6914062,218.5 L51.6914062,217.917969 C51.5273429,218.175783 51.3333345,218.361979 51.109375,218.476562 C50.8854155,218.591146 50.6289077,218.648438 50.3398438,218.648438 C49.8736956,218.648438 49.4700538,218.452476 49.1289062,218.060547 C48.7877587,217.668618 48.6171875,217.147139 48.6171875,216.496094 C48.6171875,215.886716 48.7727849,215.358726 49.0839844,214.912109 C49.3951838,214.465493 49.8398409,214.242188 50.4179688,214.242188 Z M55.5859375,214.316406 L56.2539062,214.316406 L56.2539062,214.910156 C56.4518239,214.665363 56.6614572,214.489584 56.8828125,214.382812 C57.1041678,214.276041 57.3502591,214.222656 57.6210938,214.222656 C58.2148467,214.222656 58.6158844,214.429685 58.8242188,214.84375 C58.9388027,215.070314 58.9960938,215.394529 58.9960938,215.816406 L58.9960938,218.5 L58.28125,218.5 L58.28125,215.863281 C58.28125,215.608072 58.24349,215.402345 58.1679688,215.246094 C58.0429681,214.985676 57.8164079,214.855469 57.4882812,214.855469 C57.3216137,214.855469 57.1848964,214.872396 57.078125,214.90625 C56.8854157,214.963542 56.7161466,215.078124 56.5703125,215.25 C56.4531244,215.388022 56.3769533,215.530598 56.3417969,215.677734 C56.3066404,215.824871 56.2890625,216.035155 56.2890625,216.308594 L56.2890625,218.5 L55.5859375,218.5 L55.5859375,214.316406 Z M61.6953125,218.046875 C62.1614607,218.046875 62.4811189,217.870444 62.6542969,217.517578 C62.8274748,217.164712 62.9140625,216.772138 62.9140625,216.339844 C62.9140625,215.949217 62.8515631,215.631512 62.7265625,215.386719 C62.5286448,215.0013 62.1875024,214.808594 61.703125,214.808594 C61.2734354,214.808594 60.9609385,214.972655 60.765625,215.300781 C60.5703115,215.628908 60.4726562,216.024737 60.4726562,216.488281 C60.4726562,216.933596 60.5703115,217.304686 60.765625,217.601562 C60.9609385,217.898439 61.2708312,218.046875 61.6953125,218.046875 Z M61.7226562,214.195312 C62.2617214,214.195312 62.7174461,214.374998 63.0898438,214.734375 C63.4622414,215.093752 63.6484375,215.622392 63.6484375,216.320312 C63.6484375,216.994795 63.4843766,217.552081 63.15625,217.992188 C62.8281234,218.432294 62.3190139,218.652344 61.6289062,218.652344 C61.0533825,218.652344 60.5963559,218.457684 60.2578125,218.068359 C59.9192691,217.679035 59.75,217.156253 59.75,216.5 C59.75,215.796871 59.9283836,215.236981 60.2851562,214.820312 C60.6419289,214.403644 61.1210907,214.195312 61.7226562,214.195312 Z M64.8085938,214.316406 L65.6132812,217.613281 L66.4296875,214.316406 L67.21875,214.316406 L68.0390625,217.59375 L68.8945312,214.316406 L69.5976562,214.316406 L68.3828125,218.5 L67.6523438,218.5 L66.8007812,215.261719 L65.9765625,218.5 L65.2460938,218.5 L64.0390625,214.316406 L64.8085938,214.316406 Z M75.0976562,214.316406 L75.875,214.316406 C75.7760412,214.584637 75.5559913,215.19661 75.2148438,216.152344 C74.9596341,216.871097 74.7460946,217.457029 74.5742188,217.910156 C74.1679667,218.97787 73.8815113,219.628905 73.7148438,219.863281 C73.5481762,220.097657 73.2617208,220.214844 72.8554688,220.214844 C72.7565099,220.214844 72.6803388,220.210938 72.6269531,220.203125 C72.5735674,220.195312 72.5078129,220.18099 72.4296875,220.160156 L72.4296875,219.519531 C72.5520839,219.553386 72.6406247,219.574219 72.6953125,219.582031 C72.7500003,219.589844 72.7981769,219.59375 72.8398438,219.59375 C72.9700527,219.59375 73.0657549,219.572266 73.1269531,219.529297 C73.1881513,219.486328 73.2395831,219.433594 73.28125,219.371094 C73.2942709,219.35026 73.3411454,219.243491 73.421875,219.050781 C73.5026046,218.858072 73.5611977,218.714844 73.5976562,218.621094 L72.0507812,214.316406 L72.8476562,214.316406 L73.96875,217.722656 L75.0976562,214.316406 Z M78.1445312,218.046875 C78.6106794,218.046875 78.9303377,217.870444 79.1035156,217.517578 C79.2766936,217.164712 79.3632812,216.772138 79.3632812,216.339844 C79.3632812,215.949217 79.3007819,215.631512 79.1757812,215.386719 C78.9778636,215.0013 78.6367212,214.808594 78.1523438,214.808594 C77.7226541,214.808594 77.4101572,214.972655 77.2148438,215.300781 C77.0195303,215.628908 76.921875,216.024737 76.921875,216.488281 C76.921875,216.933596 77.0195303,217.304686 77.2148438,217.601562 C77.4101572,217.898439 77.72005,218.046875 78.1445312,218.046875 Z M78.171875,214.195312 C78.7109402,214.195312 79.1666648,214.374998 79.5390625,214.734375 C79.9114602,215.093752 80.0976562,215.622392 80.0976562,216.320312 C80.0976562,216.994795 79.9335954,217.552081 79.6054688,217.992188 C79.2773421,218.432294 78.7682326,218.652344 78.078125,218.652344 C77.5026013,218.652344 77.0455746,218.457684 76.7070312,218.068359 C76.3684879,217.679035 76.1992188,217.156253 76.1992188,216.5 C76.1992188,215.796871 76.3776024,215.236981 76.734375,214.820312 C77.0911476,214.403644 77.5703095,214.195312 78.171875,214.195312 Z M81.6367188,214.316406 L81.6367188,217.09375 C81.6367188,217.307293 81.6705726,217.48177 81.7382812,217.617188 C81.8632819,217.867189 82.0963525,217.992188 82.4375,217.992188 C82.9270858,217.992188 83.2604158,217.77344 83.4375,217.335938 C83.5338546,217.101561 83.5820312,216.77995 83.5820312,216.371094 L83.5820312,214.316406 L84.2851562,214.316406 L84.2851562,218.5 L83.6210938,218.5 L83.6289062,217.882812 C83.53776,218.041667 83.4244798,218.175781 83.2890625,218.285156 C83.020832,218.503907 82.6953144,218.613281 82.3125,218.613281 C81.7161429,218.613281 81.3098969,218.414064 81.09375,218.015625 C80.9765619,217.802082 80.9179688,217.516929 80.9179688,217.160156 L80.9179688,214.316406 L81.6367188,214.316406 Z M85.53125,214.429688 C85.6744799,214.40625 85.7832028,214.325522 85.8574219,214.1875 C85.931641,214.049478 85.96875,213.890626 85.96875,213.710938 C85.96875,213.692708 85.968099,213.676432 85.9667969,213.662109 C85.9654948,213.647786 85.9622396,213.631511 85.9570312,213.613281 L85.53125,213.613281 L85.53125,212.761719 L86.3671875,212.761719 L86.3671875,213.546875 C86.3671875,213.88021 86.2981778,214.16341 86.1601562,214.396484 C86.0221347,214.629558 85.8125014,214.763021 85.53125,214.796875 L85.53125,214.429688 Z M87.1796875,214.316406 L87.8476562,214.316406 L87.8476562,215.039062 C87.902344,214.898437 88.0364573,214.727215 88.25,214.525391 C88.4635427,214.323567 88.709634,214.222656 88.9882812,214.222656 C89.0013021,214.222656 89.0234373,214.223958 89.0546875,214.226562 C89.0859377,214.229167 89.1393225,214.234375 89.2148438,214.242188 L89.2148438,214.984375 C89.1731769,214.976562 89.1347658,214.971354 89.0996094,214.96875 C89.0644529,214.966146 89.0260419,214.964844 88.984375,214.964844 C88.6302066,214.964844 88.3580739,215.078775 88.1679688,215.306641 C87.9778636,215.534506 87.8828125,215.796874 87.8828125,216.09375 L87.8828125,218.5 L87.1796875,218.5 L87.1796875,214.316406 Z M91.5664062,214.222656 C91.8632827,214.222656 92.1510403,214.292317 92.4296875,214.431641 C92.7083347,214.570964 92.9205722,214.751301 93.0664062,214.972656 C93.207032,215.183595 93.300781,215.429686 93.3476562,215.710938 C93.3893231,215.903647 93.4101562,216.210935 93.4101562,216.632812 L90.34375,216.632812 C90.3567709,217.057294 90.4570303,217.397785 90.6445312,217.654297 C90.8320322,217.910809 91.1223939,218.039062 91.515625,218.039062 C91.8828143,218.039062 92.1757802,217.91797 92.3945312,217.675781 C92.5195319,217.535156 92.6080727,217.372397 92.6601562,217.1875 L93.3515625,217.1875 C93.3333332,217.341147 93.272787,217.512369 93.1699219,217.701172 C93.0670568,217.889975 92.9518236,218.04427 92.8242188,218.164062 C92.610676,218.372397 92.3463557,218.51302 92.03125,218.585938 C91.8619783,218.627604 91.670574,218.648438 91.4570312,218.648438 C90.9361953,218.648438 90.4947935,218.458986 90.1328125,218.080078 C89.7708315,217.70117 89.5898438,217.170576 89.5898438,216.488281 C89.5898438,215.816403 89.7721336,215.270835 90.1367188,214.851562 C90.5013039,214.43229 90.9778616,214.222656 91.5664062,214.222656 Z M92.6875,216.074219 C92.658854,215.76953 92.5924484,215.526043 92.4882812,215.34375 C92.295572,215.005207 91.9739606,214.835938 91.5234375,214.835938 C91.2005192,214.835938 90.9296886,214.952473 90.7109375,215.185547 C90.4921864,215.418621 90.3763021,215.714842 90.3632812,216.074219 L92.6875,216.074219 Z M96.4414062,212.742188 L97.125,212.742188 L97.125,214.824219 C97.2786466,214.623697 97.4622385,214.470704 97.6757812,214.365234 C97.889324,214.259765 98.1210925,214.207031 98.3710938,214.207031 C98.8919297,214.207031 99.3144515,214.386066 99.6386719,214.744141 C99.9628922,215.102215 100.125,215.630205 100.125,216.328125 C100.125,216.989587 99.9648454,217.53906 99.6445312,217.976562 C99.3242171,218.414065 98.8802112,218.632812 98.3125,218.632812 C97.9947901,218.632812 97.7265636,218.55599 97.5078125,218.402344 C97.3776035,218.311197 97.238282,218.165366 97.0898438,217.964844 L97.0898438,218.5 L96.4414062,218.5 L96.4414062,212.742188 Z M98.2695312,218.011719 C98.6497415,218.011719 98.9342438,217.860679 99.1230469,217.558594 C99.3118499,217.256509 99.40625,216.858075 99.40625,216.363281 C99.40625,215.923175 99.3118499,215.558595 99.1230469,215.269531 C98.9342438,214.980467 98.6562518,214.835938 98.2890625,214.835938 C97.9687484,214.835938 97.6881522,214.954426 97.4472656,215.191406 C97.206379,215.428387 97.0859375,215.819008 97.0859375,216.363281 C97.0859375,216.756512 97.1354162,217.07552 97.234375,217.320312 C97.4192718,217.781252 97.7643204,218.011719 98.2695312,218.011719 Z M100.964844,214.316406 L101.632812,214.316406 L101.632812,215.039062 C101.6875,214.898437 101.821614,214.727215 102.035156,214.525391 C102.248699,214.323567 102.49479,214.222656 102.773438,214.222656 C102.786458,214.222656 102.808594,214.223958 102.839844,214.226562 C102.871094,214.229167 102.924479,214.234375 103,214.242188 L103,214.984375 C102.958333,214.976562 102.919922,214.971354 102.884766,214.96875 C102.849609,214.966146 102.811198,214.964844 102.769531,214.964844 C102.415363,214.964844 102.14323,215.078775 101.953125,215.306641 C101.76302,215.534506 101.667969,215.796874 101.667969,216.09375 L101.667969,218.5 L100.964844,218.5 L100.964844,214.316406 Z M105.269531,218.046875 C105.735679,218.046875 106.055338,217.870444 106.228516,217.517578 C106.401694,217.164712 106.488281,216.772138 106.488281,216.339844 C106.488281,215.949217 106.425782,215.631512 106.300781,215.386719 C106.102864,215.0013 105.761721,214.808594 105.277344,214.808594 C104.847654,214.808594 104.535157,214.972655 104.339844,215.300781 C104.14453,215.628908 104.046875,216.024737 104.046875,216.488281 C104.046875,216.933596 104.14453,217.304686 104.339844,217.601562 C104.535157,217.898439 104.84505,218.046875 105.269531,218.046875 Z M105.296875,214.195312 C105.83594,214.195312 106.291665,214.374998 106.664062,214.734375 C107.03646,215.093752 107.222656,215.622392 107.222656,216.320312 C107.222656,216.994795 107.058595,217.552081 106.730469,217.992188 C106.402342,218.432294 105.893233,218.652344 105.203125,218.652344 C104.627601,218.652344 104.170575,218.457684 103.832031,218.068359 C103.493488,217.679035 103.324219,217.156253 103.324219,216.5 C103.324219,215.796871 103.502602,215.236981 103.859375,214.820312 C104.216148,214.403644 104.695309,214.195312 105.296875,214.195312 Z M108.042969,212.761719 L108.71875,212.761719 L108.71875,216.09375 L110.523438,214.316406 L111.421875,214.316406 L109.820312,215.882812 L111.511719,218.5 L110.613281,218.5 L109.308594,216.390625 L108.71875,216.929688 L108.71875,218.5 L108.042969,218.5 L108.042969,212.761719 Z M113.800781,214.222656 C114.097658,214.222656 114.385415,214.292317 114.664062,214.431641 C114.94271,214.570964 115.154947,214.751301 115.300781,214.972656 C115.441407,215.183595 115.535156,215.429686 115.582031,215.710938 C115.623698,215.903647 115.644531,216.210935 115.644531,216.632812 L112.578125,216.632812 C112.591146,217.057294 112.691405,217.397785 112.878906,217.654297 C113.066407,217.910809 113.356769,218.039062 113.75,218.039062 C114.117189,218.039062 114.410155,217.91797 114.628906,217.675781 C114.753907,217.535156 114.842448,217.372397 114.894531,217.1875 L115.585938,217.1875 C115.567708,217.341147 115.507162,217.512369 115.404297,217.701172 C115.301432,217.889975 115.186199,218.04427 115.058594,218.164062 C114.845051,218.372397 114.580731,218.51302 114.265625,218.585938 C114.096353,218.627604 113.904949,218.648438 113.691406,218.648438 C113.17057,218.648438 112.729168,218.458986 112.367188,218.080078 C112.005207,217.70117 111.824219,217.170576 111.824219,216.488281 C111.824219,215.816403 112.006509,215.270835 112.371094,214.851562 C112.735679,214.43229 113.212237,214.222656 113.800781,214.222656 Z M114.921875,216.074219 C114.893229,215.76953 114.826823,215.526043 114.722656,215.34375 C114.529947,215.005207 114.208336,214.835938 113.757812,214.835938 C113.434894,214.835938 113.164064,214.952473 112.945312,215.185547 C112.726561,215.418621 112.610677,215.714842 112.597656,216.074219 L114.921875,216.074219 Z M119.582031,218.5 L119.582031,217.640625 L120.398438,217.640625 L120.398438,218.5 L119.582031,218.5 Z M116.917969,217.640625 L117.730469,217.640625 L117.730469,218.5 L116.917969,218.5 L116.917969,217.640625 Z M122.25,218.5 L122.25,217.640625 L123.0625,217.640625 L123.0625,218.5 L122.25,218.5 Z" id="and-now-you’re-broke" fill="#000000" transform="translate(81.441406, 216.478516) rotate(-270.000000) translate(-81.441406, -216.478516) "></path>
    </g>
</svg>